# xmcd CD database file
#
# Track frame offsets:
#	150
#	26313
#	75730
#	112940
#	136668
#	177495
#	209263
#	261303
#
# Disc length: 4060 seconds
#
# Revision: 1
# Processed by: cddbd v1.5.2PL0 Copyright (c) Steve Scherf et al.
# Submitted via: CDex 1.51
#
DISCID=620fda08
DTITLE=Cannonball Adderly Meets Miles Davis - Giants of Jazz - Disc 125, Autumn Leaves
DYEAR=1965
DGENRE=Jazz
TTITLE0=Dr. Jekyll
TTITLE1=Autumn Leaves
TTITLE2=Somethin' Else
TTITLE3=Two Bass Hit
TTITLE4=So What
TTITLE5=Love For Sale
TTITLE6=All Blues
TTITLE7=Freddie Freeloader
EXTD=YEAR: 1965
EXTT0=
EXTT1=
EXTT2=
EXTT3=
EXTT4=
EXTT5=
EXTT6=
EXTT7=
PLAYORDER=
